<?xml version="1.0" encoding="UTF-8" standalone="no"?>
<svg
   xmlns:dc="http://purl.org/dc/elements/1.1/"
   xmlns:cc="http://creativecommons.org/ns#"
   xmlns:rdf="http://www.w3.org/1999/02/22-rdf-syntax-ns#"
   xmlns:svg="http://www.w3.org/2000/svg"
   xmlns="http://www.w3.org/2000/svg"
   xmlns:sodipodi="http://sodipodi.sourceforge.net/DTD/sodipodi-0.dtd"
   xmlns:inkscape="http://www.inkscape.org/namespaces/inkscape"
   width="1024"
   height="1024"
   viewBox="0 0 270.93335 270.93335"
   version="1.1"
   id="svg8"
   inkscape:version="1.0.2 (e86c870879, 2021-01-15)"
   sodipodi:docname="dwim.svg"
   inkscape:export-filename="/home/marnanel/proj/dwim/icons/xxxhdpi.png"
   inkscape:export-xdpi="18"
   inkscape:export-ydpi="18">
  <defs
     id="defs2">
    <rect
       x="247.71819"
       y="-79.544594"
       width="325.17978"
       height="329.1283"
       id="rect895" />
    <rect
       x="11.589755"
       y="-250.68578"
       width="522.98303"
       height="542.8233"
       id="rect889" />
    <rect
       x="11.589755"
       y="-250.68578"
       width="522.98303"
       height="542.8233"
       id="rect903" />
    <rect
       x="11.589755"
       y="-250.68578"
       width="522.98303"
       height="542.8233"
       id="rect909" />
    <rect
       x="11.589755"
       y="-250.68578"
       width="522.98303"
       height="542.8233"
       id="rect915" />
    <rect
       x="11.589755"
       y="-250.68578"
       width="522.98303"
       height="542.8233"
       id="rect939" />
    <rect
       x="11.589755"
       y="-250.68578"
       width="522.98303"
       height="542.8233"
       id="rect949" />
    <rect
       x="11.589755"
       y="-250.68578"
       width="522.98303"
       height="542.8233"
       id="rect951" />
  </defs>
  <sodipodi:namedview
     id="base"
     pagecolor="#ffffff"
     bordercolor="#666666"
     borderopacity="1.0"
     inkscape:pageopacity="0.0"
     inkscape:pageshadow="2"
     inkscape:zoom="0.25"
     inkscape:cx="675.42418"
     inkscape:cy="347.24084"
     inkscape:document-units="px"
     inkscape:current-layer="layer1"
     showgrid="false"
     units="px"
     inkscape:window-width="1366"
     inkscape:window-height="704"
     inkscape:window-x="0"
     inkscape:window-y="27"
     inkscape:window-maximized="1"
     inkscape:document-rotation="0"
     inkscape:snap-global="false"
     fit-margin-top="0"
     fit-margin-left="0"
     fit-margin-right="0"
     fit-margin-bottom="0" />
  <metadata
     id="metadata5">
    <rdf:RDF>
      <cc:Work
         rdf:about="">
        <dc:format>image/svg+xml</dc:format>
        <dc:type
           rdf:resource="http://purl.org/dc/dcmitype/StillImage" />
        <dc:title></dc:title>
      </cc:Work>
    </rdf:RDF>
  </metadata>
  <g
     inkscape:label="Layer 1"
     inkscape:groupmode="layer"
     id="layer1"
     transform="translate(-4.0540597,273.81502)">
    <path
       style="fill:#0a0;fill-opacity:1;stroke-width:1"
       d="m 18.579605,-1.6351242 c 2.921999,-4.0617573 15.372134,-14.8314328 22.085548,-19.1045438 1.124725,-0.715894 2.048003,-1.430457 2.051727,-1.587938 0.0037,-0.1574 -1.718301,-0.555157 -3.826725,-0.883773 C 31.610762,-24.345928 25.106011,-29.619255 18.486094,-39.75272 9.3942567,-53.670066 7.2645163,-58.382874 5.5012815,-68.486169 3.2369316,-81.460876 3.6406855,-93.451517 6.6353768,-102.16648 c 0.893973,-2.60158 1.893137,-6.43813 2.2203649,-8.52567 0.6185925,-3.94632 0.4522238,-12.90223 -0.2746659,-14.78571 -0.3372839,-0.87395 -0.1910825,-0.82165 0.7570934,0.2708 6.1442878,7.07908 12.7150028,11.71816 20.3975328,14.40111 2.631344,0.91891 9.896196,6.07815 14.690159,10.43242 3.990526,3.624495 11.5848,12.488363 14.256699,16.640098 2.911152,4.523498 7.893518,18.838233 9.785958,28.115864 1.04661,5.130951 0.787999,12.545716 -0.568558,16.301781 -2.004727,5.550712 -2.093586,5.203654 0.959075,3.745996 1.49898,-0.71575 10.81951,-4.628786 20.712279,-8.695599 22.659946,-9.315272 24.234436,-9.993995 32.187696,-13.874957 7.44949,-3.63514 10.25019,-5.620181 13.29694,-9.424469 2.12929,-2.658729 5.32523,-5.725776 7.62917,-7.321512 1.30514,-0.903975 7.75774,-11.653735 10.44614,-17.402865 0.91411,-1.954829 1.86723,-3.675012 2.11805,-3.822628 0.25082,-0.147575 1.98708,-0.113598 3.85836,0.07553 l 3.40232,0.343886 -4.56611,8.529438 -4.56612,8.529459 h 2.35524 c 6.38657,0 23.00069,3.53456 31.15857,6.62883 6.67426,2.531519 16.10445,9.141476 23.47086,16.451567 5.56362,5.521053 8.44668,9.266332 10.99772,14.286735 2.99857,5.901146 5.67476,9.558453 9.90686,13.538829 2.05849,1.93604 3.69065,3.694089 3.627,3.906753 -0.0637,0.212684 0.22573,0.256997 0.64307,0.09845 0.41732,-0.158423 0.88322,-0.08883 1.03531,0.154944 0.15199,0.243694 -2.59284,0.460451 -6.09984,0.481677 -6.82295,0.04134 -10.83462,0.824006 -16.70556,3.259488 -4.30704,1.786725 -6.10047,2.259354 -12.103,3.18961 -5.98926,0.92821 -20.27895,0.689285 -27.08278,-0.452796 -5.80404,-0.974283 -8.55013,-2.043517 -19.02987,-7.409627 -18.65671,-9.553091 -24.28712,-16.114273 -24.67911,-28.75885 l -0.0611,-1.972841 -5.66918,2.812731 c -5.68536,2.820754 -8.8916,4.191852 -37.553839,16.059377 -15.981945,6.617285 -17.656439,7.357781 -26.262086,11.61372 -14.329177,7.086538 -23.193498,12.986456 -31.459791,20.9390617 l -3.829889,3.68455008 -4.277488,0.00614 -4.277488,0.00614 1.098297,-1.52669748 z"
       id="path898" />
    <path
       id="path900"
       style="fill:#ff4343;fill-opacity:1;stroke-width:1"
       d="m 186.89157,-90.466301 c -8.63646,-0.922909 -6.32698,-13.981759 -6.35865,-16.463459 -4.48077,5.61083 -9.82011,13.397331 -18.08624,13.165017 -6.97632,0.374048 -15.9266,-2.161077 -16.89161,-9.832867 -1.91548,-4.80368 10.31906,-15.40503 0.95801,-9.26214 -4.73221,2.41631 -10.84694,5.03713 -16.18817,4.1895 -7.5703,-1.535 -16.41119,-8.63226 -13.76619,-17.07846 1.62484,-5.20298 14.38756,-9.49966 2.73308,-7.93744 -8.75173,1.08083 -18.59576,-3.04674 -21.47732,-11.92463 -3.799922,-7.36628 1.71928,-15.14807 9.17176,-15.74969 8.96505,0.39128 -1.55499,-1.78797 -4.40101,-3.4357 -9.720461,-2.8655 -14.747055,-14.34973 -11.172929,-23.63957 2.564979,-7.54046 9.205779,-6.74059 16.072929,-5.2176 -5.86783,-5.71636 -11.955808,-12.48468 -10.531298,-21.33583 -0.05569,-9.92053 11.754358,-16.6942 19.636568,-9.86386 7.02649,7.41138 -1.50583,-5.37407 -0.7611,-9.12551 -2.31557,-6.45694 0.38755,-12.95174 5.19544,-16.77186 5.26882,-6.13218 16.03098,-5.11228 18.98286,2.74648 3.94447,5.62032 0.68984,-10.25731 4.42828,-13.51983 3.98384,-7.86554 15.48388,-12.07844 23.09378,-7.23266 4.37048,3.16471 2.62549,17.76088 6.155,7.26258 3.71818,-6.80932 9.2581,-13.94604 17.5843,-12.27748 5.92232,0.58713 13.35857,1.2616 13.67545,8.03433 2.03744,4.50338 -4.74565,14.44971 2.764,7.09015 7.52251,-6.75881 20.1854,-7.94441 27.35775,-0.0271 5.01464,5.55253 2.31333,13.22319 -2.91446,17.31443 6.16745,-0.90268 14.68173,-4.18861 21.41665,-0.54522 7.339,4.41269 13.68914,17.3246 4.07879,22.75621 -3.03736,1.68267 -9.46952,3.5408 -1.82564,3.44523 8.32834,0.32553 17.85787,5.16217 18.91289,14.31231 3.36497,9.63556 -5.61322,17.14663 -14.20604,16.02624 8.20547,3.73231 16.32236,11.67034 14.369,21.47835 -0.45477,9.75706 -11.22124,15.70656 -19.30171,9.33536 -0.21221,2.0444 10.79424,12.9957 6.57094,20.00595 -1.00075,6.54571 -7.19398,14.76393 -14.58413,12.74856 -5.44805,-0.6293 -12.01975,-11.38125 -8.57773,-0.45592 1.0886,8.71537 -1.95253,18.31204 -10.87851,21.46711 -7.81728,4.600142 -15.94504,-2.83718 -16.38384,-10.78249 -1.99717,6.26087 -4.5861,15.946625 -11.91463,19.804686 -3.88094,1.992279 -8.7251,1.987146 -12.93627,1.296803 z" />
    <path
       id="path902"
       style="fill:#8a0000;fill-opacity:1;stroke-width:1"
       d="m 186.88984,-91.286643 c -1.63586,-9.166997 2.85561,-18.538777 5.28294,-27.370397 4.28907,-12.50423 7.74949,-25.9011 5.3682,-39.17356 0.79134,-3.35205 -3.91884,-17.09814 -3.05366,-7.32026 3.20655,11.44554 -1.96921,23.45622 -7.34937,33.4436 -6.54809,13.36473 -17.94378,23.71956 -24.3273,37.096439 -0.97951,3.203787 -21.21328,-1.56398 -10.54461,-9.385449 9.35752,-15.1178 24.85663,-26.07671 31.71538,-42.84853 1.87654,-4.25032 6.20389,-16.64578 3.0022,-16.8995 -1.80979,15.70948 -15.68408,26.1146 -27.8343,34.39334 -9.80234,6.53998 -21.02086,10.761 -30.17676,18.27191 -8.10949,2.69169 -17.19174,-10.50724 -5.57097,-13.04492 17.59171,-10.23251 38.93656,-15.32955 52.3579,-31.67661 2.81327,-1.70242 7.30388,-13.24393 2.17895,-5.80541 -9.68961,12.61037 -26.51031,16.2869 -41.43796,18.44844 -11.29397,0.71345 -22.56192,1.98208 -33.73581,3.7539 -6.537253,-2.69823 -8.700288,-15.63391 1.56646,-13.94903 18.90003,-2.26797 38.76544,1.48346 56.87451,-5.78753 3.85942,-0.35181 17.74429,-10.18547 7.58541,-5.56013 -9.3456,5.10226 -20.59811,3.61396 -30.77056,2.49643 -15.12179,-2.6043 -28.97797,-9.86397 -44.10044,-12.57786 -7.455552,-3.14054 -3.594852,-19.78561 5.781011,-13.0242 18.953599,5.55611 35.984559,17.98511 56.378259,17.88769 3.49402,0.96109 18.31393,-1.76604 7.01836,-2.1239 -9.45763,0.77243 -18.7125,-3.59894 -26.26821,-8.40325 -13.08135,-7.83511 -22.92456,-20.50685 -35.42646,-29.23519 -7.834083,-2.3104 -2.729782,-17.88155 4.53989,-14.08394 17.2063,12.45781 27.51916,33.12142 47.54992,41.90233 2.66466,2.30832 15.76728,5.03264 6.82777,1.11039 -16.66601,-8.03097 -24.83943,-26.13464 -31.96225,-42.16932 -3.2956,-7.74973 -6.75249,-15.83534 -11.42922,-22.65835 2.9331,-6.15537 12.69668,-13.27485 14.84589,-2.50527 9.13742,18.23314 10.97304,40.46393 25.68321,55.71531 1.79333,3.10535 10.29535,9.34632 4.64824,2.25364 -8.5784,-8.7455 -10.76491,-21.69334 -11.73706,-33.42267 -0.40107,-14.08809 0.24791,-28.243 -1.23686,-42.27343 -0.96682,-2.82978 13.75592,-8.95237 13.95731,-1.25746 1.55836,19.12544 -3.90554,38.16345 -1.13062,57.23493 1.07624,3.57186 3.98896,17.31965 6.01359,14.20256 -5.6935,-15.08163 -0.45032,-31.62046 5.59132,-45.74496 3.19444,-6.98722 6.68821,-13.58613 9.60071,-20.90929 0.3762,-8.75272 7.68531,-15.47172 15.91322,-9.50892 2.44558,8.94455 -6.52345,17.75087 -9.82148,25.91093 -5.4734,9.99958 -11.55248,19.78103 -14.06448,31.05178 -2.22101,3.26966 -1.87788,22.16046 0.22198,9.8065 3.92267,-18.8703 19.72672,-31.7972 33.54363,-43.87046 7.43082,-5.35611 14.69292,-20.90525 24.64519,-10.63804 5.48348,5.80563 -7.49655,11.75873 -11.02793,16.11478 -13.32916,10.26768 -28.36957,19.29853 -37.43444,34.0006 -2.36548,2.19926 -4.41374,11.78264 -0.38194,4.51651 7.46465,-11.99563 21.12521,-18.15041 33.85164,-23.02648 11.97623,-3.70539 24.33544,-6.87264 35.41946,-12.80159 8.41789,3.42646 9.68036,15.45568 -1.34909,15.96511 -17.77111,6.03541 -37.44616,6.5276 -53.64854,16.7994 -3.99424,1.05014 -13.17105,11.09468 -4.48072,5.11418 16.04951,-9.68183 35.88959,-7.48976 53.65991,-5.28253 7.81611,2.82265 20.22375,-2.53141 25.38137,3.14218 5.62225,9.36499 -2.43344,14.64865 -11.10499,11.52603 -17.2787,-1.57492 -34.04531,-8.52782 -51.60951,-6.09291 -4.22047,-1.13458 -19.21172,5.68265 -8.10552,3.09887 15.55101,-2.39191 29.92905,5.37324 43.28485,12.30584 9.12081,5.18886 18.1341,10.89269 27.97915,14.51524 2.40544,5.81357 -0.53061,18.48093 -8.22335,11.53657 -13.87282,-6.0219 -24.80751,-17.39477 -38.45113,-24.1599 -7.77433,-3.68225 -16.49684,-7.15774 -25.32916,-6.87714 7.72775,2.80283 17.43224,5.90174 23.64193,12.80627 11.69855,9.99266 19.52527,23.37217 29.292,35.02746 8.09404,4.49361 7.06201,15.53643 -1.59945,17.99409 -6.6062,-4.3866 -10.32299,-11.77211 -14.49885,-18.14201 -8.44821,-15.28132 -18.47831,-31.24935 -34.68412,-39.2989 -5.60459,0.21621 9.4218,6.35407 9.81882,10.94413 11.0929,15.51892 13.42985,34.90418 17.98631,52.9045 5.15747,7.15789 1.90843,17.018005 -7.58034,16.81141 -6.37109,-6.58794 -5.38265,-17.26457 -6.95295,-25.82321 -1.55574,-13.36554 -3.1175,-27.3297 -10.68283,-38.83989 -0.97838,-4.37978 -10.54501,-13.73514 -4.34309,-4.07965 7.55425,13.93538 5.27341,30.48958 3.04821,45.51641 -2.57305,10.09294 -4.27483,20.40543 -5.83461,30.636204 -2.34045,3.16335 -9.8284,3.805384 -12.75416,1.396143 z M 92.512192,-190.7669 c 1.111369,-1.19049 1.243623,1.81577 0,0 z m 169.062178,-34.08586 c 1.47001,-2.18267 1.29209,2.10936 0,0 z" />
  </g>
</svg>
