<?xml version="1.0" encoding="UTF-8" standalone="no"?>
<svg
   xmlns:dc="http://purl.org/dc/elements/1.1/"
   xmlns:cc="http://creativecommons.org/ns#"
   xmlns:rdf="http://www.w3.org/1999/02/22-rdf-syntax-ns#"
   xmlns:svg="http://www.w3.org/2000/svg"
   xmlns="http://www.w3.org/2000/svg"
   xmlns:sodipodi="http://sodipodi.sourceforge.net/DTD/sodipodi-0.dtd"
   xmlns:inkscape="http://www.inkscape.org/namespaces/inkscape"
   width="1600"
   height="900"
   viewBox="0 0 423.33335 238.12501"
   version="1.1"
   id="svg8"
   inkscape:version="1.0.2 (e86c870879, 2021-01-15)"
   sodipodi:docname="dwim-with-name.svg"
   inkscape:export-filename="/tmp/dwim-with-name.png"
   inkscape:export-xdpi="96"
   inkscape:export-ydpi="96">
  <defs
     id="defs2">
    <rect
       x="185.21924"
       y="-202.46626"
       width="287.65073"
       height="178.5435"
       id="rect896" />
    <rect
       x="247.71819"
       y="-79.544594"
       width="325.17978"
       height="329.1283"
       id="rect895" />
    <rect
       x="11.589755"
       y="-250.68578"
       width="522.98303"
       height="542.8233"
       id="rect889" />
    <rect
       x="11.589755"
       y="-250.68578"
       width="522.98303"
       height="542.8233"
       id="rect903" />
    <rect
       x="11.589755"
       y="-250.68578"
       width="522.98303"
       height="542.8233"
       id="rect909" />
    <rect
       x="11.589755"
       y="-250.68578"
       width="522.98303"
       height="542.8233"
       id="rect915" />
    <rect
       x="11.589755"
       y="-250.68578"
       width="522.98303"
       height="542.8233"
       id="rect939" />
    <rect
       x="11.589755"
       y="-250.68578"
       width="522.98303"
       height="542.8233"
       id="rect949" />
    <rect
       x="11.589755"
       y="-250.68578"
       width="522.98303"
       height="542.8233"
       id="rect951" />
  </defs>
  <sodipodi:namedview
     id="base"
     pagecolor="#ffffff"
     bordercolor="#666666"
     borderopacity="1.0"
     inkscape:pageopacity="0.0"
     inkscape:pageshadow="2"
     inkscape:zoom="0.25"
     inkscape:cx="1101.1276"
     inkscape:cy="516.01315"
     inkscape:document-units="px"
     inkscape:current-layer="layer1"
     showgrid="false"
     units="px"
     inkscape:window-width="1366"
     inkscape:window-height="704"
     inkscape:window-x="0"
     inkscape:window-y="27"
     inkscape:window-maximized="1"
     inkscape:document-rotation="0"
     inkscape:snap-global="false"
     fit-margin-top="0"
     fit-margin-left="0"
     fit-margin-right="0"
     fit-margin-bottom="0" />
  <metadata
     id="metadata5">
    <rdf:RDF>
      <cc:Work
         rdf:about="">
        <dc:format>image/svg+xml</dc:format>
        <dc:type
           rdf:resource="http://purl.org/dc/dcmitype/StillImage" />
        <dc:title></dc:title>
      </cc:Work>
    </rdf:RDF>
  </metadata>
  <g
     inkscape:label="Layer 1"
     inkscape:groupmode="layer"
     id="layer1"
     transform="translate(-4.0540597,273.81502)">
    <g
       id="g891"
       transform="matrix(0.79650594,0,0,0.85995142,4.6779722,-33.907646)"
       style="stroke-width:1.20829">
      <path
         style="fill:#0a0;fill-opacity:1;stroke-width:1.20829;stroke:white;stroke-opacity:1"
         d="m 18.579605,-1.6351242 c 2.921999,-4.0617573 15.372134,-14.8314328 22.085548,-19.1045438 1.124725,-0.715894 2.048003,-1.430457 2.051727,-1.587938 0.0037,-0.1574 -1.718301,-0.555157 -3.826725,-0.883773 C 31.610762,-24.345928 25.106011,-29.619255 18.486094,-39.75272 9.3942567,-53.670066 7.2645163,-58.382874 5.5012815,-68.486169 3.2369316,-81.460876 3.6406855,-93.451517 6.6353768,-102.16648 c 0.893973,-2.60158 1.893137,-6.43813 2.2203649,-8.52567 0.6185925,-3.94632 0.4522238,-12.90223 -0.2746659,-14.78571 -0.3372839,-0.87395 -0.1910825,-0.82165 0.7570934,0.2708 6.1442878,7.07908 12.7150028,11.71816 20.3975328,14.40111 2.631344,0.91891 9.896196,6.07815 14.690159,10.43242 3.990526,3.624495 11.5848,12.488363 14.256699,16.640098 2.911152,4.523498 7.893518,18.838233 9.785958,28.115864 1.04661,5.130951 0.787999,12.545716 -0.568558,16.301781 -2.004727,5.550712 -2.093586,5.203654 0.959075,3.745996 1.49898,-0.71575 10.81951,-4.628786 20.712279,-8.695599 22.659946,-9.315272 24.234436,-9.993995 32.187696,-13.874957 7.44949,-3.63514 10.25019,-5.620181 13.29694,-9.424469 2.12929,-2.658729 5.32523,-5.725776 7.62917,-7.321512 1.30514,-0.903975 7.75774,-11.653735 10.44614,-17.402865 0.91411,-1.954829 1.86723,-3.675012 2.11805,-3.822628 0.25082,-0.147575 1.98708,-0.113598 3.85836,0.07553 l 3.40232,0.343886 -4.56611,8.529438 -4.56612,8.529459 h 2.35524 c 6.38657,0 23.00069,3.53456 31.15857,6.62883 6.67426,2.531519 16.10445,9.141476 23.47086,16.451567 5.56362,5.521053 8.44668,9.266332 10.99772,14.286735 2.99857,5.901146 5.67476,9.558453 9.90686,13.538829 2.05849,1.93604 3.69065,3.694089 3.627,3.906753 -0.0637,0.212684 0.22573,0.256997 0.64307,0.09845 0.41732,-0.158423 0.88322,-0.08883 1.03531,0.154944 0.15199,0.243694 -2.59284,0.460451 -6.09984,0.481677 -6.82295,0.04134 -10.83462,0.824006 -16.70556,3.259488 -4.30704,1.786725 -6.10047,2.259354 -12.103,3.18961 -5.98926,0.92821 -20.27895,0.689285 -27.08278,-0.452796 -5.80404,-0.974283 -8.55013,-2.043517 -19.02987,-7.409627 -18.65671,-9.553091 -24.28712,-16.114273 -24.67911,-28.75885 l -0.0611,-1.972841 -5.66918,2.812731 c -5.68536,2.820754 -8.8916,4.191852 -37.553839,16.059377 -15.981945,6.617285 -17.656439,7.357781 -26.262086,11.61372 -14.329177,7.086538 -23.193498,12.986456 -31.459791,20.9390617 l -3.829889,3.68455008 -4.277488,0.00614 -4.277488,0.00614 1.098297,-1.52669748 z"
         id="path898" />
      <path
         id="path900"
         style="fill:#ff4343;fill-opacity:1;stroke-width:1.20829"
         d="m 186.89157,-90.466301 c -8.63646,-0.922909 -6.32698,-13.981759 -6.35865,-16.463459 -4.48077,5.61083 -9.82011,13.397331 -18.08624,13.165017 -6.97632,0.374048 -15.9266,-2.161077 -16.89161,-9.832867 -1.91548,-4.80368 10.31906,-15.40503 0.95801,-9.26214 -4.73221,2.41631 -10.84694,5.03713 -16.18817,4.1895 -7.5703,-1.535 -16.41119,-8.63226 -13.76619,-17.07846 1.62484,-5.20298 14.38756,-9.49966 2.73308,-7.93744 -8.75173,1.08083 -18.59576,-3.04674 -21.47732,-11.92463 -3.799922,-7.36628 1.71928,-15.14807 9.17176,-15.74969 8.96505,0.39128 -1.55499,-1.78797 -4.40101,-3.4357 -9.720461,-2.8655 -14.747055,-14.34973 -11.172929,-23.63957 2.564979,-7.54046 9.205779,-6.74059 16.072929,-5.2176 -5.86783,-5.71636 -11.955808,-12.48468 -10.531298,-21.33583 -0.05569,-9.92053 11.754358,-16.6942 19.636568,-9.86386 7.02649,7.41138 -1.50583,-5.37407 -0.7611,-9.12551 -2.31557,-6.45694 0.38755,-12.95174 5.19544,-16.77186 5.26882,-6.13218 16.03098,-5.11228 18.98286,2.74648 3.94447,5.62032 0.68984,-10.25731 4.42828,-13.51983 3.98384,-7.86554 15.48388,-12.07844 23.09378,-7.23266 4.37048,3.16471 2.62549,17.76088 6.155,7.26258 3.71818,-6.80932 9.2581,-13.94604 17.5843,-12.27748 5.92232,0.58713 13.35857,1.2616 13.67545,8.03433 2.03744,4.50338 -4.74565,14.44971 2.764,7.09015 7.52251,-6.75881 20.1854,-7.94441 27.35775,-0.0271 5.01464,5.55253 2.31333,13.22319 -2.91446,17.31443 6.16745,-0.90268 14.68173,-4.18861 21.41665,-0.54522 7.339,4.41269 13.68914,17.3246 4.07879,22.75621 -3.03736,1.68267 -9.46952,3.5408 -1.82564,3.44523 8.32834,0.32553 17.85787,5.16217 18.91289,14.31231 3.36497,9.63556 -5.61322,17.14663 -14.20604,16.02624 8.20547,3.73231 16.32236,11.67034 14.369,21.47835 -0.45477,9.75706 -11.22124,15.70656 -19.30171,9.33536 -0.21221,2.0444 10.79424,12.9957 6.57094,20.00595 -1.00075,6.54571 -7.19398,14.76393 -14.58413,12.74856 -5.44805,-0.6293 -12.01975,-11.38125 -8.57773,-0.45592 1.0886,8.71537 -1.95253,18.31204 -10.87851,21.46711 -7.81728,4.600142 -15.94504,-2.83718 -16.38384,-10.78249 -1.99717,6.26087 -4.5861,15.946625 -11.91463,19.804686 -3.88094,1.992279 -8.7251,1.987146 -12.93627,1.296803 z" />
      <path
         id="path902"
         style="fill:#8a0000;fill-opacity:1;stroke-width:1.20829"
         d="m 186.88984,-91.286643 c -1.63586,-9.166997 2.85561,-18.538777 5.28294,-27.370397 4.28907,-12.50423 7.74949,-25.9011 5.3682,-39.17356 0.79134,-3.35205 -3.91884,-17.09814 -3.05366,-7.32026 3.20655,11.44554 -1.96921,23.45622 -7.34937,33.4436 -6.54809,13.36473 -17.94378,23.71956 -24.3273,37.096439 -0.97951,3.203787 -21.21328,-1.56398 -10.54461,-9.385449 9.35752,-15.1178 24.85663,-26.07671 31.71538,-42.84853 1.87654,-4.25032 6.20389,-16.64578 3.0022,-16.8995 -1.80979,15.70948 -15.68408,26.1146 -27.8343,34.39334 -9.80234,6.53998 -21.02086,10.761 -30.17676,18.27191 -8.10949,2.69169 -17.19174,-10.50724 -5.57097,-13.04492 17.59171,-10.23251 38.93656,-15.32955 52.3579,-31.67661 2.81327,-1.70242 7.30388,-13.24393 2.17895,-5.80541 -9.68961,12.61037 -26.51031,16.2869 -41.43796,18.44844 -11.29397,0.71345 -22.56192,1.98208 -33.73581,3.7539 -6.537253,-2.69823 -8.700288,-15.63391 1.56646,-13.94903 18.90003,-2.26797 38.76544,1.48346 56.87451,-5.78753 3.85942,-0.35181 17.74429,-10.18547 7.58541,-5.56013 -9.3456,5.10226 -20.59811,3.61396 -30.77056,2.49643 -15.12179,-2.6043 -28.97797,-9.86397 -44.10044,-12.57786 -7.455552,-3.14054 -3.594852,-19.78561 5.781011,-13.0242 18.953599,5.55611 35.984559,17.98511 56.378259,17.88769 3.49402,0.96109 18.31393,-1.76604 7.01836,-2.1239 -9.45763,0.77243 -18.7125,-3.59894 -26.26821,-8.40325 -13.08135,-7.83511 -22.92456,-20.50685 -35.42646,-29.23519 -7.834083,-2.3104 -2.729782,-17.88155 4.53989,-14.08394 17.2063,12.45781 27.51916,33.12142 47.54992,41.90233 2.66466,2.30832 15.76728,5.03264 6.82777,1.11039 -16.66601,-8.03097 -24.83943,-26.13464 -31.96225,-42.16932 -3.2956,-7.74973 -6.75249,-15.83534 -11.42922,-22.65835 2.9331,-6.15537 12.69668,-13.27485 14.84589,-2.50527 9.13742,18.23314 10.97304,40.46393 25.68321,55.71531 1.79333,3.10535 10.29535,9.34632 4.64824,2.25364 -8.5784,-8.7455 -10.76491,-21.69334 -11.73706,-33.42267 -0.40107,-14.08809 0.24791,-28.243 -1.23686,-42.27343 -0.96682,-2.82978 13.75592,-8.95237 13.95731,-1.25746 1.55836,19.12544 -3.90554,38.16345 -1.13062,57.23493 1.07624,3.57186 3.98896,17.31965 6.01359,14.20256 -5.6935,-15.08163 -0.45032,-31.62046 5.59132,-45.74496 3.19444,-6.98722 6.68821,-13.58613 9.60071,-20.90929 0.3762,-8.75272 7.68531,-15.47172 15.91322,-9.50892 2.44558,8.94455 -6.52345,17.75087 -9.82148,25.91093 -5.4734,9.99958 -11.55248,19.78103 -14.06448,31.05178 -2.22101,3.26966 -1.87788,22.16046 0.22198,9.8065 3.92267,-18.8703 19.72672,-31.7972 33.54363,-43.87046 7.43082,-5.35611 14.69292,-20.90525 24.64519,-10.63804 5.48348,5.80563 -7.49655,11.75873 -11.02793,16.11478 -13.32916,10.26768 -28.36957,19.29853 -37.43444,34.0006 -2.36548,2.19926 -4.41374,11.78264 -0.38194,4.51651 7.46465,-11.99563 21.12521,-18.15041 33.85164,-23.02648 11.97623,-3.70539 24.33544,-6.87264 35.41946,-12.80159 8.41789,3.42646 9.68036,15.45568 -1.34909,15.96511 -17.77111,6.03541 -37.44616,6.5276 -53.64854,16.7994 -3.99424,1.05014 -13.17105,11.09468 -4.48072,5.11418 16.04951,-9.68183 35.88959,-7.48976 53.65991,-5.28253 7.81611,2.82265 20.22375,-2.53141 25.38137,3.14218 5.62225,9.36499 -2.43344,14.64865 -11.10499,11.52603 -17.2787,-1.57492 -34.04531,-8.52782 -51.60951,-6.09291 -4.22047,-1.13458 -19.21172,5.68265 -8.10552,3.09887 15.55101,-2.39191 29.92905,5.37324 43.28485,12.30584 9.12081,5.18886 18.1341,10.89269 27.97915,14.51524 2.40544,5.81357 -0.53061,18.48093 -8.22335,11.53657 -13.87282,-6.0219 -24.80751,-17.39477 -38.45113,-24.1599 -7.77433,-3.68225 -16.49684,-7.15774 -25.32916,-6.87714 7.72775,2.80283 17.43224,5.90174 23.64193,12.80627 11.69855,9.99266 19.52527,23.37217 29.292,35.02746 8.09404,4.49361 7.06201,15.53643 -1.59945,17.99409 -6.6062,-4.3866 -10.32299,-11.77211 -14.49885,-18.14201 -8.44821,-15.28132 -18.47831,-31.24935 -34.68412,-39.2989 -5.60459,0.21621 9.4218,6.35407 9.81882,10.94413 11.0929,15.51892 13.42985,34.90418 17.98631,52.9045 5.15747,7.15789 1.90843,17.018005 -7.58034,16.81141 -6.37109,-6.58794 -5.38265,-17.26457 -6.95295,-25.82321 -1.55574,-13.36554 -3.1175,-27.3297 -10.68283,-38.83989 -0.97838,-4.37978 -10.54501,-13.73514 -4.34309,-4.07965 7.55425,13.93538 5.27341,30.48958 3.04821,45.51641 -2.57305,10.09294 -4.27483,20.40543 -5.83461,30.636204 -2.34045,3.16335 -9.8284,3.805384 -12.75416,1.396143 z M 92.512192,-190.7669 c 1.111369,-1.19049 1.243623,1.81577 0,0 z m 169.062178,-34.08586 c 1.47001,-2.18267 1.29209,2.10936 0,0 z" />
    </g>
    <g
       id="g933"
       transform="matrix(1.1583038,0,0,1.1583038,-14.052846,31.340722)"
       style="stroke-width:0.2284231;fill:#8a0000;fill-opacity:1;stroke:white;stroke-opacity:1;stroke-miterlimit:4;stroke-dasharray:none">
      <path
         d="m 215.2269,-146.45936 q 0,-0.92996 -0.33817,2.78989 -0.46498,4.6921 -0.71861,12.005 -0.33818,8.28514 -0.33818,18.85291 0,17.45798 0.97224,24.855424 0.0845,0.803153 0.0845,1.014503 0,0.464979 -0.63407,0.549522 -1.52176,0.21135 -11.20184,0.21135 -2.28265,0 -2.62081,-0.887679 -0.0845,-1.606305 -0.16905,-3.212611 -0.0423,-0.338173 -0.33817,-0.676346 -0.25363,0.126789 -0.63407,0.50726 -4.56528,4.480743 -11.41321,4.480743 -8.91919,0 -14.28762,-6.256136 -5.11481,-5.960225 -5.11481,-15.04852 0,-9.2151 5.03026,-15.17532 5.32616,-6.34067 14.37217,-6.34067 6.38295,0 9.93373,4.05803 0.59179,0.67633 0.84542,0.67633 0.38043,0 0.38043,-1.09904 0,-3.25488 -0.16905,-9.72236 -0.16905,-6.46747 -0.16905,-9.68008 0,-1.22587 0.67634,-1.39494 2.70536,-0.12679 7.43971,-0.50726 8.45423,-1.05678 7.48199,-1.05678 0.92998,0 0.92998,1.05678 z m -15.93621,38.84716 q 0,-3.33942 -2.32492,-5.83342 -2.32491,-2.53627 -5.62205,-2.53627 -3.46624,0 -5.53753,2.53627 -2.029,2.494 -2.029,6.0025 0,3.42396 2.07128,5.79114 2.11355,2.536266 5.49525,2.536266 3.38168,0 5.66433,-2.536266 2.28264,-2.53626 2.28264,-5.96022 z"
         style="font-style:normal;font-variant:normal;font-weight:normal;font-stretch:normal;font-size:50.8px;line-height:125%;font-family:'Berlin Sans FB Demi';-inkscape-font-specification:'Berlin Sans FB Demi, Normal';font-variant-ligatures:normal;font-variant-caps:normal;font-variant-numeric:normal;font-variant-east-asian:normal;text-align:start;letter-spacing:0px;word-spacing:0px;text-anchor:start;white-space:pre;fill:#8a0000;fill-opacity:1;stroke:white;stroke-width:0.2284231;stroke-linecap:butt;stroke-linejoin:miter;stroke-opacity:1;stroke-miterlimit:4;stroke-dasharray:none"
         id="path901" />
      <path
         d="m 282.14207,-116.06643 q 0,6.59429 -1.05678,9.17283 -1.09904,2.70536 -5.49524,10.060521 -4.48075,7.566531 -6.17158,9.384186 -1.14133,1.225869 -5.57979,1.225869 -3.67759,0 -4.64983,-0.25363 -0.80315,-0.21135 -1.47948,-0.845416 -2.40946,-2.367195 -7.43973,-11.624558 -5.32616,9.510993 -7.27062,11.624558 -1.01452,1.099046 -5.53752,1.099046 -3.2126,0 -4.14257,-0.25363 -2.11355,-0.591786 -7.14382,-9.172836 -4.10029,-7.01699 -5.87568,-11.24411 -1.09905,-2.70535 -1.09905,-9.17283 0,-7.82016 0.4227,-9.55327 0.29591,-1.09905 1.4795,-1.09905 1.94446,0 5.8334,0.12679 3.88896,0.12679 5.83342,0.12679 0.97224,0 0.97224,1.39494 0,1.22587 -0.0845,3.76213 -0.0845,2.494 -0.0845,3.71986 0,5.1148 0.25363,7.56653 0.0845,0.92996 2.24037,4.77663 2.19809,3.8044 2.70535,3.8044 0.76088,0 2.7899,-3.76213 1.64857,-3.17034 2.15583,-4.6921 0.50724,-1.56402 0.50724,-7.65105 0,-1.26814 -0.25363,-3.76214 -0.21135,-2.53626 -0.21135,-3.76213 0,-1.3104 0.97224,-1.3104 1.18359,0 4.69209,-0.0423 l 1.73311,-0.0423 q -0.0423,0 -0.16905,0 -0.0845,-0.0423 -0.0423,0 h 0.29589 1.09905 q 1.6063,-0.0423 4.69209,0.0845 0.92998,0.12679 0.92998,1.3104 0,1.6063 -0.21137,4.90346 -0.21135,3.25487 -0.21135,4.86116 0,4.31166 0.33817,5.45298 0.46498,1.43722 2.02901,4.60755 1.9022,3.8044 2.66309,3.8044 0.76087,0 2.83215,-3.84666 1.98675,-3.67759 2.11355,-4.81892 0.16905,-1.6063 0.16905,-14.96397 0,-1.47948 0.84544,-1.47948 1.94446,0 5.8334,-0.12679 3.93122,-0.12679 5.8757,-0.12679 1.14131,0 1.4372,1.18359 0.465,1.77539 0.465,9.55327 z"
         style="font-style:normal;font-variant:normal;font-weight:normal;font-stretch:normal;font-size:50.8px;line-height:125%;font-family:'Berlin Sans FB Demi';-inkscape-font-specification:'Berlin Sans FB Demi, Normal';font-variant-ligatures:normal;font-variant-caps:normal;font-variant-numeric:normal;font-variant-east-asian:normal;text-align:start;letter-spacing:0px;word-spacing:0px;text-anchor:start;white-space:pre;fill:#8a0000;fill-opacity:1;stroke:white;stroke-width:0.2284231;stroke-linecap:butt;stroke-linejoin:miter;stroke-opacity:1;stroke-miterlimit:4;stroke-dasharray:none"
         id="path903" />
      <path
         style="font-style:normal;font-variant:normal;font-weight:normal;font-stretch:normal;font-size:50.8px;line-height:125%;font-family:'Berlin Sans FB Demi';-inkscape-font-specification:'Berlin Sans FB Demi, Normal';font-variant-ligatures:normal;font-variant-caps:normal;font-variant-numeric:normal;font-variant-east-asian:normal;text-align:start;letter-spacing:0px;word-spacing:0px;text-anchor:start;white-space:pre;fill:#8a0000;fill-opacity:1;stroke:white;stroke-width:0.2284231;stroke-linecap:butt;stroke-linejoin:miter;stroke-opacity:1;stroke-miterlimit:4;stroke-dasharray:none"
         d="m 302.64356,-105.87909 q 0,3.08579 0.12679,9.215097 0.12679,6.087049 0.12679,9.130557 0,0.887696 -1.05679,1.056782 -1.4372,0.25363 -6.46746,0.25363 -5.07253,0 -6.50975,-0.25363 -0.92998,-0.169052 -1.14133,-0.549523 -0.0845,-0.169052 -0.0845,-1.268132 0,-2.916701 0.12678,-8.75012 0.12679,-5.875681 0.12679,-8.834661 0,-12.005 -0.92997,-19.10655 -0.0845,-0.67633 -0.0845,-0.88769 0,-0.84542 1.14131,-0.84542 1.18359,0 3.59305,0.25363 2.45172,0.25363 3.67759,0.25363 1.22585,0 3.67759,-0.21137 2.45172,-0.21135 3.67757,-0.21135 1.01452,0 1.01452,0.84542 0,0.16905 -0.0845,0.80315 -0.92998,8.24288 -0.92998,19.10655 z"
         id="path924" />
      <path
         d="m 378.35111,-88.040679 q 0,1.479482 -1.26813,1.648568 -1.26813,0.169053 -6.25612,0.169053 -5.15707,0 -6.4252,-0.25363 -1.26813,-0.25363 -1.26813,-2.071285 0,-1.944462 0.12679,-5.791139 0.12678,-3.88894 0.12678,-5.833418 0,-7.39745 -0.16905,-10.5255 -0.25363,-5.03026 -4.77663,-5.03026 -1.98675,0 -3.97349,1.69085 -1.94448,1.64857 -2.15583,3.67757 -0.16905,1.77539 -0.16905,10.398706 0,1.986742 0.12679,6.044769 0.12679,4.015746 0.12679,6.044768 0,1.394939 -1.22587,1.394939 h -12.80815 q -1.18359,0 -1.18359,-1.733112 0,-1.986742 0.12679,-5.960225 0.12679,-3.973484 0.12679,-6.002505 0,-1.56403 -0.0845,-4.73436 -0.0845,-3.17033 -0.0845,-4.77663 0,-6.04477 -4.60755,-6.04477 -1.85993,0 -4.01576,1.43722 -2.36718,1.56402 -2.36718,3.29713 0,3.84668 0.0423,11.497755 0.0423,7.651075 0.0423,11.455472 0,1.056765 -0.25363,1.310395 -0.25363,0.25363 -1.3104,0.338173 -1.90222,0.169053 -6.00251,0.169053 -2.66308,0 -6.04476,-0.25363 -1.01451,-0.08453 -1.22587,-0.295893 -0.16906,-0.211367 -0.16906,-1.268132 0,-3.381698 0.0423,-10.102796 0.0423,-6.763377 0.0423,-10.145077 0,-6.93246 -1.0145,-15.59804 -0.0845,-0.50724 -0.0845,-0.76087 0,-0.71861 0.5918,-0.97224 0.92996,-0.38044 3.50851,-0.63407 3.17033,-0.29589 3.76212,-0.38044 0.42271,-0.0845 3.33941,-0.88769 2.07129,-0.5918 3.33942,-0.5918 0.80315,0 0.84543,2.95898 0.0423,2.91672 0.33818,2.91672 0.4227,-0.16906 0.97222,-0.59181 3.80441,-2.95898 6.0025,-4.05802 3.25488,-1.56403 7.05928,-1.56403 3.88894,0 6.93246,1.73311 3.42396,1.94446 4.43846,5.45297 2.24038,-3.04351 6.1716,-5.1148 3.9312,-2.07128 7.65107,-2.07128 5.57977,0 9.08828,2.57853 3.97348,2.91672 3.97348,8.32742 0,2.24035 -0.12679,6.76338 -0.12679,4.48072 -0.12679,6.72109 0,2.66309 0.12679,8.031515 0.12679,5.326159 0.12679,7.989248 z"
         style="font-style:normal;font-variant:normal;font-weight:normal;font-stretch:normal;font-size:50.8px;line-height:125%;font-family:'Berlin Sans FB Demi';-inkscape-font-specification:'Berlin Sans FB Demi, Normal';font-variant-ligatures:normal;font-variant-caps:normal;font-variant-numeric:normal;font-variant-east-asian:normal;text-align:start;letter-spacing:0px;word-spacing:0px;text-anchor:start;white-space:pre;fill:#8a0000;fill-opacity:1;stroke:white;stroke-width:0.2284231;stroke-linecap:butt;stroke-linejoin:miter;stroke-opacity:1;stroke-miterlimit:4;stroke-dasharray:none"
         id="path907" />
      <path
         id="path914"
         style="opacity:0.99;fill:#8a0000;fill-opacity:1;stroke-width:0.2284231;stroke:white;stroke-opacity:1;stroke-miterlimit:4;stroke-dasharray:none"
         d="m 295.84219,-126.74611 c -0.17616,-1.06582 0.30752,-2.15545 0.56892,-3.18227 0.46188,-1.45383 0.83453,-3.01145 0.57809,-4.55459 0.0852,-0.38974 -0.42201,-1.98795 -0.32884,-0.85111 0.34531,1.33074 -0.21206,2.72718 -0.79145,3.88839 -0.70515,1.55387 -1.93235,2.7578 -2.61978,4.31309 -0.10548,0.37249 -2.28444,-0.18184 -1.13554,-1.09122 1.0077,-1.7577 2.67679,-3.03186 3.4154,-4.98187 0.20208,-0.49417 0.66809,-1.93535 0.3233,-1.96485 -0.19489,1.82649 -1.689,3.03626 -2.99745,3.99881 -1.0556,0.76038 -2.26371,1.25115 -3.2497,2.12442 -0.8733,0.31295 -1.85136,-1.22165 -0.59993,-1.5167 1.89443,-1.1897 4.19304,-1.78232 5.63837,-3.68294 0.30296,-0.19794 0.78654,-1.53983 0.23465,-0.67498 -1.04347,1.46617 -2.85487,1.89363 -4.46242,2.14495 -1.21623,0.083 -2.42967,0.23045 -3.63297,0.43645 -0.70399,-0.31371 -0.93693,-1.81771 0.16869,-1.62181 2.03532,-0.26369 4.17461,0.17248 6.12476,-0.6729 0.41561,-0.0409 1.91086,-1.18423 0.81686,-0.64646 -1.00642,0.59323 -2.21819,0.42019 -3.31365,0.29025 -1.62845,-0.30279 -3.12061,-1.14685 -4.74913,-1.46239 -0.80288,-0.36514 -0.38713,-2.30041 0.62255,-1.51428 2.04109,0.64599 3.87514,2.09107 6.07132,2.07975 0.37627,0.11174 1.97221,-0.20533 0.7558,-0.24694 -1.01848,0.0898 -2.01513,-0.41844 -2.8288,-0.97702 -1.40872,-0.91097 -2.46872,-2.38427 -3.81504,-3.39909 -0.84364,-0.26862 -0.29397,-2.07903 0.4889,-1.6375 1.85293,1.44844 2.96351,3.85093 5.1206,4.87186 0.28696,0.26838 1.69796,0.58513 0.73528,0.1291 -1.79475,-0.93373 -2.67494,-3.03859 -3.44199,-4.9029 -0.3549,-0.90103 -0.72717,-1.84112 -1.2308,-2.63441 0.31587,-0.71567 1.3673,-1.54343 1.59874,-0.29128 0.984,2.11991 1.18168,4.70461 2.7658,6.47785 0.19312,0.36105 1.1087,1.08666 0.50057,0.26202 -0.9238,-1.01681 -1.15927,-2.52222 -1.26396,-3.88595 -0.0432,-1.63798 0.0267,-3.28373 -0.13319,-4.91501 -0.10412,-0.329 1.48136,-1.04086 1.50305,-0.1462 0.16781,2.22366 -0.42059,4.43715 -0.12176,6.65454 0.1159,0.41528 0.42957,2.0137 0.6476,1.65128 -0.61313,-1.75349 -0.0485,-3.67641 0.60212,-5.31862 0.34401,-0.81239 0.72025,-1.57962 1.03389,-2.43106 0.0405,-1.01766 0.82763,-1.79885 1.71368,-1.10558 0.26336,1.03996 -0.7025,2.06384 -1.05766,3.01259 -0.58943,1.16262 -1.24408,2.29988 -1.51459,3.61029 -0.23918,0.38016 -0.20223,2.57653 0.0239,1.14018 0.42243,-2.194 2.12435,-3.69697 3.61228,-5.10069 0.80022,-0.62274 1.58227,-2.43059 2.65402,-1.23685 0.59051,0.675 -0.8073,1.36715 -1.18759,1.87362 -1.4354,1.19379 -3.05509,2.24378 -4.03128,3.95314 -0.25473,0.2557 -0.47531,1.36993 -0.0411,0.52512 0.80386,-1.39469 2.27496,-2.11029 3.64545,-2.67722 1.28971,-0.43081 2.62066,-0.79906 3.81429,-1.4884 0.90651,0.39839 1.04247,1.79699 -0.14528,1.85622 -1.91376,0.70172 -4.03254,0.75894 -5.77736,1.95321 -0.43014,0.1221 -1.41838,1.28995 -0.48253,0.59461 1.72836,-1.12567 3.86492,-0.87081 5.77859,-0.61418 0.84171,0.32818 2.17787,-0.29432 2.73329,0.36533 0.60546,1.08884 -0.26205,1.70315 -1.19588,1.3401 -1.86073,-0.18311 -3.66631,-0.99151 -5.55778,-0.70841 -0.4545,-0.13191 -2.06889,0.66071 -0.87288,0.3603 1.67468,-0.2781 3.22303,0.62473 4.66131,1.43076 0.98221,0.60329 1.95284,1.26646 3.01304,1.68764 0.25904,0.67593 -0.0571,2.14873 -0.88556,1.34133 -1.49395,-0.70015 -2.6715,-2.02244 -4.14077,-2.809 -0.83721,-0.42813 -1.77652,-0.83221 -2.72767,-0.79959 0.8322,0.32588 1.87726,0.68618 2.54598,1.48895 1.2598,1.16182 2.10266,2.71741 3.15443,4.07254 0.87163,0.52245 0.7605,1.80637 -0.17225,2.09211 -0.71141,-0.51001 -1.11167,-1.3687 -1.56136,-2.10931 -0.90978,-1.77671 -1.98992,-3.63327 -3.7351,-4.56917 -0.60356,0.0251 1.01462,0.73877 1.05738,1.27244 1.19458,1.80434 1.44624,4.05821 1.93692,6.15105 0.55541,0.83223 0.20552,1.97863 -0.81632,1.95461 -0.68609,-0.76596 -0.57965,-2.0073 -0.74875,-3.00238 -0.16754,-1.55397 -0.33572,-3.17755 -1.15043,-4.5158 -0.10536,-0.50922 -1.13558,-1.59694 -0.4677,-0.47433 0.81351,1.62023 0.56789,3.54493 0.32826,5.29206 -0.27709,1.17347 -0.46035,2.37247 -0.62832,3.56197 -0.25204,0.3678 -1.05841,0.44244 -1.37349,0.16233 z m -10.16343,-11.56627 c 0.11968,-0.13841 0.13392,0.21112 0,0 z m 18.20614,-3.96306 c 0.1583,-0.25377 0.13914,0.24525 0,0 z" />
    </g>
  </g>
</svg>
